<svg width="410" height="20" viewBox="0 0 410 20" fill="none" xmlns="http://www.w3.org/2000/svg">
<g opacity="0.12">
<path d="M30 10L130 9.99999" stroke="white"/>
<path d="M146.591 17C149.487 17 151.69 14.6168 152.524 12.3593C152.972 11.1871 153.107 9.91364 152.915 8.67018C152.723 7.42672 152.211 6.25823 151.432 5.28504C149.972 3.54949 147.689 2.76973 145.014 3.05898C141.946 3.39855 139.854 5.53655 138.958 6.44835C138.657 6.76276 138.345 7.14636 137.995 7.56767C136.467 9.45413 134.737 11.5733 131.473 10.083C131.131 9.88093 130.845 9.59422 130.641 9.24918C130.436 8.90415 130.319 8.51187 130.301 8.10845C130.309 7.64612 130.47 7.20032 130.758 6.84397C131.045 6.48762 131.442 6.24177 131.884 6.14652C132.267 6.11353 132.65 6.19746 132.987 6.3877C133.323 6.57795 133.597 6.86596 133.774 7.21549C133.807 7.30378 133.858 7.38381 133.924 7.45022C133.99 7.51663 134.069 7.56793 134.155 7.60067C134.242 7.63342 134.334 7.64686 134.426 7.64013C134.519 7.6334 134.608 7.60661 134.69 7.5616C134.771 7.51659 134.842 7.45437 134.898 7.37907C134.954 7.30376 134.993 7.21715 135.014 7.12491C135.035 7.03268 135.036 6.93693 135.018 6.84412C135 6.75132 134.963 6.66357 134.909 6.58667C134.606 6.00486 134.14 5.52889 133.572 5.21972C133.004 4.91054 132.358 4.78221 131.718 4.85111C130.97 4.986 130.29 5.38229 129.795 5.97266C129.299 6.56303 129.018 7.31106 129 8.08956C129.009 8.75965 129.196 9.41452 129.541 9.98394C129.886 10.5533 130.376 11.0158 130.957 11.3217C135.105 13.1705 137.443 10.303 138.995 8.41027C139.308 8.02669 139.609 7.66825 139.879 7.37899C140.744 6.49864 142.541 4.65617 145.155 4.36691C147.395 4.12167 149.278 4.75053 150.45 6.14023C151.076 6.93244 151.486 7.8809 151.637 8.88856C151.788 9.89622 151.675 10.9269 151.309 11.8751C150.597 13.8056 148.689 15.7235 146.468 15.648C145.278 15.6103 143.314 14.9563 142.787 13.2962C142.631 12.7794 142.605 12.2306 142.711 11.7007C142.817 11.1708 143.052 10.6769 143.394 10.2649C143.736 9.85286 144.174 9.53597 144.668 9.34368C145.161 9.15138 145.694 9.08987 146.217 9.16482C146.305 9.1785 146.394 9.17243 146.48 9.14702C146.565 9.1216 146.644 9.07749 146.711 9.01767C146.778 8.95786 146.832 8.88376 146.868 8.80059C146.905 8.71743 146.923 8.62715 146.922 8.536C146.93 8.44724 146.92 8.35784 146.893 8.27317C146.866 8.18851 146.822 8.11033 146.765 8.04335C146.707 7.97638 146.637 7.922 146.559 7.88346C146.481 7.84493 146.396 7.82304 146.309 7.81913C145.473 7.73122 144.63 7.88138 143.872 8.25306C143.114 8.62474 142.471 9.20358 142.014 9.92575C141.682 10.4858 141.47 11.1117 141.391 11.7622C141.313 12.4126 141.37 13.0727 141.56 13.6987C142.265 15.8555 144.591 16.8931 146.468 16.9496L146.591 17Z" fill="white"/>
</g>
<path d="M205.824 16H206.496C206.608 15.3281 206.912 14.5937 207.424 13.7969C208.448 12.2188 210.512 10.6719 212.288 10.3125V9.65625C211.408 9.46875 210.544 9.07812 209.712 8.5C208.016 7.32812 206.768 5.57813 206.496 4H205.824C205.664 4.82812 205.296 5.625 204.72 6.4375C203.584 8.04687 201.808 9.23437 200 9.65625V10.3125C200.912 10.5 201.84 10.9375 202.752 11.6094C204.608 12.9688 205.584 14.6563 205.824 16Z" fill="white"/>
<path d="M188.896 11.8125H189.115C189.151 11.5938 189.25 11.3547 189.417 11.0953C189.75 10.5816 190.422 10.0781 191 9.9611V9.74748C190.714 9.68644 190.432 9.55929 190.161 9.37109C189.609 8.98962 189.203 8.41996 189.115 7.90625H188.896C188.844 8.17582 188.724 8.43522 188.536 8.69971C188.167 9.22359 187.589 9.61015 187 9.74748V9.9611C187.297 10.0221 187.599 10.1646 187.896 10.3833C188.5 10.8258 188.818 11.3751 188.896 11.8125Z" fill="white"/>
<path d="M220.896 11.8125H221.115C221.151 11.5938 221.25 11.3547 221.417 11.0953C221.75 10.5816 222.422 10.0781 223 9.9611V9.74748C222.714 9.68644 222.432 9.55929 222.161 9.37109C221.609 8.98962 221.203 8.41996 221.115 7.90625H220.896C220.844 8.17582 220.724 8.43522 220.536 8.69971C220.167 9.22359 219.589 9.61015 219 9.74748V9.9611C219.297 10.0221 219.599 10.1646 219.896 10.3833C220.5 10.8258 220.818 11.3751 220.896 11.8125Z" fill="white"/>
<g opacity="0.12">
<path d="M380 10L280 9.99999" stroke="white"/>
<path d="M263.409 17C260.513 17 258.31 14.6168 257.476 12.3593C257.028 11.1871 256.893 9.91364 257.085 8.67018C257.277 7.42672 257.789 6.25823 258.568 5.28504C260.028 3.54949 262.311 2.76973 264.986 3.05898C268.054 3.39855 270.146 5.53655 271.042 6.44835C271.343 6.76276 271.655 7.14636 272.005 7.56767C273.533 9.45413 275.263 11.5733 278.527 10.083C278.869 9.88093 279.155 9.59422 279.359 9.24918C279.564 8.90415 279.681 8.51187 279.699 8.10845C279.691 7.64612 279.53 7.20032 279.242 6.84397C278.955 6.48762 278.558 6.24177 278.116 6.14652C277.733 6.11353 277.35 6.19746 277.013 6.3877C276.677 6.57795 276.403 6.86596 276.226 7.21549C276.193 7.30378 276.142 7.38381 276.076 7.45022C276.01 7.51663 275.931 7.56793 275.845 7.60067C275.758 7.63342 275.666 7.64686 275.574 7.64013C275.481 7.6334 275.392 7.60661 275.31 7.5616C275.229 7.51659 275.158 7.45437 275.102 7.37907C275.046 7.30376 275.007 7.21715 274.986 7.12491C274.965 7.03268 274.964 6.93693 274.982 6.84412C275 6.75132 275.037 6.66357 275.091 6.58667C275.394 6.00486 275.86 5.52889 276.428 5.21972C276.996 4.91054 277.642 4.78221 278.282 4.85111C279.03 4.986 279.71 5.38229 280.205 5.97266C280.701 6.56303 280.982 7.31106 281 8.08956C280.991 8.75965 280.804 9.41452 280.459 9.98394C280.114 10.5533 279.624 11.0158 279.043 11.3217C274.895 13.1705 272.557 10.303 271.005 8.41027C270.692 8.02669 270.391 7.66825 270.121 7.37899C269.256 6.49864 267.459 4.65617 264.845 4.36691C262.605 4.12167 260.722 4.75053 259.55 6.14023C258.924 6.93244 258.514 7.8809 258.363 8.88856C258.212 9.89622 258.325 10.9269 258.691 11.8751C259.403 13.8056 261.311 15.7235 263.532 15.648C264.722 15.6103 266.686 14.9563 267.213 13.2962C267.369 12.7794 267.395 12.2306 267.289 11.7007C267.183 11.1708 266.948 10.6769 266.606 10.2649C266.264 9.85286 265.826 9.53597 265.332 9.34368C264.839 9.15138 264.306 9.08987 263.783 9.16482C263.695 9.1785 263.606 9.17243 263.52 9.14702C263.435 9.1216 263.356 9.07749 263.289 9.01767C263.222 8.95786 263.168 8.88376 263.132 8.80059C263.095 8.71743 263.077 8.62715 263.078 8.536C263.07 8.44724 263.08 8.35784 263.107 8.27317C263.134 8.18851 263.178 8.11033 263.235 8.04335C263.293 7.97638 263.363 7.922 263.441 7.88346C263.519 7.84493 263.604 7.82304 263.691 7.81913C264.527 7.73122 265.37 7.88138 266.128 8.25306C266.886 8.62474 267.529 9.20358 267.986 9.92575C268.318 10.4858 268.53 11.1117 268.609 11.7622C268.687 12.4126 268.63 13.0727 268.44 13.6987C267.735 15.8555 265.409 16.8931 263.532 16.9496L263.409 17Z" fill="white"/>
</g>
</svg>
