<svg width="24" height="24" viewBox="0 0 24 24" fill="none" xmlns="http://www.w3.org/2000/svg">
<path fill-rule="evenodd" clip-rule="evenodd" d="M9.75711 11.7529C10.1476 12.1434 10.1476 12.7766 9.75711 13.1671L8.93921 13.985L9.78711 14.8329C10.1776 15.2234 10.1776 15.8566 9.78711 16.2471C9.39658 16.6376 8.76342 16.6376 8.37289 16.2471L7.525 15.3992L6.70711 16.2171C6.31658 16.6076 5.68342 16.6076 5.29289 16.2171C4.90237 15.8266 4.90237 15.1934 5.29289 14.8029L6.11079 13.985L5.32289 13.1971C4.93237 12.8066 4.93237 12.1734 5.32289 11.7829C5.71342 11.3924 6.34658 11.3924 6.73711 11.7829L7.525 12.5708L8.34289 11.7529C8.73342 11.3624 9.36658 11.3624 9.75711 11.7529Z" fill="white"/>
<path fill-rule="evenodd" clip-rule="evenodd" d="M16.02 11C16.5723 11 17.02 11.4477 17.02 12V12.02C17.02 12.5723 16.5723 13.02 16.02 13.02C15.4678 13.02 15.02 12.5723 15.02 12.02V12C15.02 11.4477 15.4678 11 16.02 11ZM13.05 13.98C13.05 13.4277 13.4978 12.98 14.05 12.98H14.06C14.6123 12.98 15.06 13.4277 15.06 13.98C15.06 14.5323 14.6123 14.98 14.06 14.98H14.05C13.4978 14.98 13.05 14.5323 13.05 13.98ZM16.99 13.98C16.99 13.4277 17.4378 12.98 17.99 12.98H18C18.5523 12.98 19 13.4277 19 13.98C19 14.5323 18.5523 14.98 18 14.98H17.99C17.4378 14.98 16.99 14.5323 16.99 13.98ZM16.02 14.94C16.5723 14.94 17.02 15.3877 17.02 15.94V15.96C17.02 16.5123 16.5723 16.96 16.02 16.96C15.4678 16.96 15.02 16.5123 15.02 15.96V15.94C15.02 15.3877 15.4678 14.94 16.02 14.94Z" fill="white"/>
<path fill-rule="evenodd" clip-rule="evenodd" d="M13.0199 1.00005C13.5722 1.00552 14.0154 1.45764 14.01 2.0099L14 3.0199C13.9947 3.54686 13.7816 4.05055 13.4071 4.4213C13.0327 4.79201 12.5271 4.99997 12.0002 5H15C17.5986 5 19.6778 5.5136 21.0821 6.91789C22.4864 8.32219 23 10.4014 23 13V15C23 17.5986 22.4864 19.6778 21.0821 21.0821C19.6778 22.4864 17.5986 23 15 23H9C6.40137 23 4.32218 22.4864 2.91789 21.0821C1.5136 19.6778 1 17.5986 1 15V13C1 10.4014 1.5136 8.32219 2.91789 6.91789C4.32218 5.5136 6.40137 5 9 5H9.98C9.98 3.91085 10.8547 3 11.97 3H12L12.01 1.9901C12.0155 1.43784 12.4676 0.994582 13.0199 1.00005ZM9 7C6.59863 7 5.17782 7.4864 4.33211 8.33211C3.4864 9.17782 3 10.5986 3 13V15C3 17.4014 3.4864 18.8222 4.33211 19.6679C5.17782 20.5136 6.59863 21 9 21H15C17.4014 21 18.8222 20.5136 19.6679 19.6679C20.5136 18.8222 21 17.4014 21 15V13C21 10.5986 20.5136 9.17782 19.6679 8.33211C18.8222 7.4864 17.4014 7 15 7H9Z" fill="white"/>
</svg>
