<svg width="24" height="24" viewBox="0 0 24 24" fill="none" xmlns="http://www.w3.org/2000/svg">
<path fill-rule="evenodd" clip-rule="evenodd" d="M3.59586 3.59586C3.24743 3.94428 3 4.65843 3 6.44V12H21V6.44C21 4.65833 20.7525 3.94481 20.4036 3.59652C20.0539 3.24755 19.337 3 17.55 3H6.44C4.65843 3 3.94428 3.24743 3.59586 3.59586ZM22.9992 12.9599C22.9997 12.8969 23 12.8336 23 12.77V6.44C23 4.67167 22.8025 3.16519 21.8164 2.18098C20.8311 1.19745 19.3229 1 17.55 1H6.44C4.67157 1 3.16572 1.19756 2.18164 2.18164C1.19756 3.16572 1 4.67157 1 6.44V12.78C1 12.8408 1.00023 12.9014 1.00073 12.9616C1.00024 12.9743 1 12.9871 1 13C1 13.0201 1.00059 13.0401 1.00176 13.0599C1.02323 14.7068 1.24978 16.107 2.18231 17.0378C3.16728 18.0209 4.67376 18.2149 6.44145 18.21H11V21H7.5C6.94772 21 6.5 21.4477 6.5 22C6.5 22.5523 6.94772 23 7.5 23H16.5C17.0523 23 17.5 22.5523 17.5 22C17.5 21.4477 17.0523 21 16.5 21H13V18.21H17.56C19.3265 18.21 20.8331 18.0155 21.8177 17.0328C22.7481 16.1041 22.9757 14.7081 22.9981 13.0625C22.9994 13.0418 23 13.021 23 13C23 12.9866 22.9997 12.9732 22.9992 12.9599ZM20.9484 14H3.0509C3.14049 14.9193 3.34114 15.3687 3.59519 15.6222C3.94247 15.9689 4.65547 16.215 6.43718 16.21L6.44 16.21L17.56 16.21C19.3435 16.21 20.0569 15.9645 20.4048 15.6172C20.6581 15.3644 20.8585 14.9168 20.9484 14Z" fill="white"/>
</svg>
