<svg width="24" height="24" viewBox="0 0 24 24" fill="none" xmlns="http://www.w3.org/2000/svg">
<path d="M8.46443 7.05025C8.07391 6.65972 7.44074 6.65972 7.05022 7.05025C6.65969 7.44077 6.65969 8.07394 7.05022 8.46446L10.5858 12.0001L7.05037 15.5355C6.65984 15.9261 6.65984 16.5592 7.05037 16.9498C7.44089 17.3403 8.07406 17.3403 8.46458 16.9498L12 13.4143L15.5355 16.9497C15.926 17.3403 16.5592 17.3403 16.9497 16.9497C17.3402 16.5592 17.3402 15.9261 16.9497 15.5355L13.4143 12.0001L16.9499 8.46447C17.3404 8.07395 17.3404 7.44078 16.9499 7.05026C16.5593 6.65973 15.9262 6.65974 15.5356 7.05026L12 10.5859L8.46443 7.05025Z" fill="white"/>
</svg>
