<svg width="24" height="24" viewBox="0 0 24 24" fill="none" xmlns="http://www.w3.org/2000/svg">
<path fill-rule="evenodd" clip-rule="evenodd" d="M3 4.5C2.17157 4.5 1.5 5.17157 1.5 6C1.5 6.82843 2.17157 7.5 3 7.5H3.01C3.83843 7.5 4.51 6.82843 4.51 6C4.51 5.17157 3.83843 4.5 3.01 4.5H3ZM8 4.5C7.17157 4.5 6.5 5.17157 6.5 6C6.5 6.82843 7.17157 7.5 8 7.5H21C21.8284 7.5 22.5 6.82843 22.5 6C22.5 5.17157 21.8284 4.5 21 4.5H8ZM8 10.5C7.17157 10.5 6.5 11.1716 6.5 12C6.5 12.8284 7.17157 13.5 8 13.5H21C21.8284 13.5 22.5 12.8284 22.5 12C22.5 11.1716 21.8284 10.5 21 10.5H8ZM6.5 18C6.5 17.1716 7.17157 16.5 8 16.5H21C21.8284 16.5 22.5 17.1716 22.5 18C22.5 18.8284 21.8284 19.5 21 19.5H8C7.17157 19.5 6.5 18.8284 6.5 18ZM1.5 12C1.5 11.1716 2.17157 10.5 3 10.5H3.01C3.83843 10.5 4.51 11.1716 4.51 12C4.51 12.8284 3.83843 13.5 3.01 13.5H3C2.17157 13.5 1.5 12.8284 1.5 12ZM3 16.5C2.17157 16.5 1.5 17.1716 1.5 18C1.5 18.8284 2.17157 19.5 3 19.5H3.01C3.83843 19.5 4.51 18.8284 4.51 18C4.51 17.1716 3.83843 16.5 3.01 16.5H3Z" fill="white"/>
</svg>
