<svg width="20" height="20" viewBox="0 0 20 20" fill="none" xmlns="http://www.w3.org/2000/svg">
<path fill-rule="evenodd" clip-rule="evenodd" d="M5.41659 15.1667C5.12927 15.1667 4.85372 15.2808 4.65055 15.484C4.44739 15.6871 4.33325 15.9627 4.33325 16.25C4.33325 16.8023 3.88554 17.25 3.33325 17.25C2.78097 17.25 2.33325 16.8023 2.33325 16.25C2.33325 15.4322 2.6581 14.648 3.23634 14.0697C3.81458 13.4915 4.59883 13.1667 5.41659 13.1667H16.6666C17.2189 13.1667 17.6666 13.6144 17.6666 14.1667C17.6666 14.7189 17.2189 15.1667 16.6666 15.1667H5.41659Z" fill="black"/>
<path fill-rule="evenodd" clip-rule="evenodd" d="M5.41659 2.66666C5.12927 2.66666 4.85372 2.78079 4.65055 2.98396C4.44739 3.18712 4.33325 3.46267 4.33325 3.74999V16.25C4.33325 16.5373 4.44739 16.8129 4.65055 17.016C4.85372 17.2192 5.12927 17.3333 5.41659 17.3333H15.6666V2.66666H5.41659ZM5.41659 0.666656H16.6666C17.2189 0.666656 17.6666 1.11437 17.6666 1.66666V18.3333C17.6666 18.8856 17.2189 19.3333 16.6666 19.3333H5.41659C4.59883 19.3333 3.81458 19.0085 3.23634 18.4302C2.6581 17.852 2.33325 17.0677 2.33325 16.25V3.74999C2.33325 2.93224 2.6581 2.14798 3.23634 1.56974C3.81458 0.991507 4.59883 0.666656 5.41659 0.666656Z" fill="black"/>
</svg>
