<svg width="24" height="24" viewBox="0 0 24 24" fill="none" xmlns="http://www.w3.org/2000/svg">
<g clip-path="url(#clip0_19_82)">
<path d="M22.3909 5.97644C21.3179 4.13803 19.8623 2.68243 18.0237 1.60939C16.1849 0.536387 14.1777 0 12.0003 0C9.8232 0 7.81529 0.536387 5.97683 1.60939C4.13824 2.68227 2.68264 4.13785 1.60955 5.97644C0.536387 7.81513 0 9.82304 0 12C0 14.1771 0.536551 16.1847 1.60937 18.0235C2.68243 19.8619 4.13803 21.3175 5.9766 22.3907C7.81529 23.4636 9.82304 24 12.0001 24C14.1772 24 16.1852 23.4636 18.0237 22.3907C19.8621 21.3179 21.3177 19.8619 22.3907 18.0235C23.4636 16.1848 23.9999 14.1769 23.9999 12C24 9.82281 23.4636 7.81485 22.3909 5.97644ZM12.0002 1.75003C14.5833 1.75003 16.8387 2.60417 18.7656 4.31239L18.5704 4.58564C18.4923 4.69521 18.2969 4.90591 17.9845 5.21857C17.6721 5.53096 17.3309 5.82801 16.9612 6.10921C16.5911 6.39051 16.0888 6.71077 15.4532 7.07017C14.8177 7.42957 14.1407 7.74485 13.4219 8.01565C12.224 5.80711 10.9429 3.81753 9.57824 2.04681C10.4013 1.84892 11.2085 1.75003 12.0002 1.75003ZM3.96908 5.64025C4.96901 4.38008 6.18757 3.41119 7.62523 2.7342C8.91685 4.45293 10.1876 6.42181 11.4377 8.64048C8.27101 9.47381 5.11485 9.89052 1.969 9.89035C2.30251 8.31753 2.96915 6.90068 3.96908 5.64025ZM2.43757 15.6956C1.97917 14.5237 1.75003 13.2918 1.75003 12C1.75003 11.8541 1.7554 11.7447 1.76568 11.6719C5.53671 11.6719 9.04201 11.1876 12.2816 10.2187C12.615 10.8645 12.891 11.4426 13.1098 11.9531C13.0676 11.9739 13.0004 11.9973 12.9066 12.0234C12.8125 12.0494 12.7449 12.0675 12.7029 12.078L12.1249 12.2811C11.7289 12.427 11.2105 12.6771 10.5702 13.0311C9.92964 13.3856 9.24999 13.8072 8.53119 14.2969C7.81239 14.7867 7.07017 15.4351 6.30464 16.2427C5.539 17.0499 4.89579 17.9168 4.37493 18.8439C3.5416 17.9168 2.89587 16.8671 2.43757 15.6956ZM12.0002 22.2501C9.56259 22.2501 7.38552 21.4688 5.46879 19.9064L5.70319 20.0784C6.06772 19.276 6.60411 18.5052 7.31261 17.7657C8.02101 17.0263 8.70325 16.4297 9.35949 15.9764C10.0157 15.5236 10.7292 15.0965 11.5002 14.6951C12.271 14.2943 12.7967 14.0388 13.0782 13.9297C13.3596 13.8204 13.5836 13.7343 13.7501 13.6716L13.7813 13.656H13.8128C14.8332 16.3331 15.5628 18.9269 16.0001 21.4373C14.7084 21.9793 13.3753 22.25 12.0002 22.2501ZM20.6256 17.5391C19.8547 18.732 18.8909 19.7192 17.7351 20.5001C17.3076 18.1044 16.6413 15.6613 15.7348 13.1719C17.8077 12.8487 19.9379 13 22.1255 13.6248C21.8961 15.0415 21.3961 16.3465 20.6256 17.5391ZM22.0939 11.8594C21.9897 11.8387 21.8595 11.8151 21.7032 11.7892C21.5471 11.7633 21.3568 11.7319 21.1328 11.6954C20.9091 11.659 20.6587 11.6252 20.3829 11.5939C20.1068 11.5627 19.8125 11.5341 19.4997 11.5081C19.1873 11.4819 18.854 11.4613 18.5 11.4455C18.1455 11.43 17.7863 11.4221 17.4216 11.4221C17.0573 11.4221 16.6741 11.4326 16.2733 11.4533C15.8724 11.4738 15.4845 11.5107 15.1096 11.5627C15.0781 11.5106 15.0392 11.4246 14.9923 11.3047C14.9455 11.1851 14.9113 11.0938 14.8912 11.0313C14.6929 10.5938 14.4637 10.0989 14.2031 9.54699C14.9219 9.25513 15.6069 8.91932 16.2584 8.53901C16.9092 8.15871 17.4296 7.82039 17.8205 7.52353C18.2112 7.22637 18.5809 6.91124 18.9299 6.57801C19.2789 6.24472 19.5052 6.01305 19.6097 5.8828C19.714 5.75233 19.8129 5.62481 19.9065 5.49997L19.9223 5.48421C21.4431 7.3384 22.2195 9.47371 22.2503 11.8906L22.0939 11.8594Z" fill="#0A0A0D"/>
</g>
<defs>
<clipPath id="clip0_19_82">
<rect width="24" height="24" fill="white"/>
</clipPath>
</defs>
</svg>
