<svg width="30" height="21" viewBox="0 0 30 21" fill="none" xmlns="http://www.w3.org/2000/svg">
<g clip-path="url(#clip0_16_30)">
<path d="M29.8258 1.69158C29.8058 1.64351 29.7842 1.59627 29.7603 1.54986C29.0311 0.101986 26.8295 -0.216263 23.3942 0.628259C21.8062 1.03317 20.2474 1.56082 18.73 2.20708C18.241 2.20708 17.7435 2.20708 17.2622 2.20127C16.8557 2.19796 16.4493 2.19603 16.0432 2.19547H14.604H13.3011C12.3477 2.19547 11.362 2.19547 10.3918 2.20045C8.2741 2.22199 6.56072 3.73948 6.12949 5.97717L6.00243 6.64019C5.7596 7.89551 5.51703 9.15111 5.27472 10.407C4.42765 11.1288 3.65759 11.8466 2.99303 12.5419C0.461844 15.1799 -0.491491 17.3397 0.238526 18.7867C0.700562 19.7067 1.74399 20.1733 3.33725 20.1733C4.25131 20.1733 5.35096 20.0166 6.60461 19.7083C9.75031 18.9351 13.6006 17.2734 17.4463 15.0282C17.6172 14.9288 17.7874 14.8277 17.9568 14.7266L18.0462 14.6735L18.3904 14.4655C18.8463 16.0087 19.8119 16.9518 21.2635 17.2759C22.8098 17.6181 24.1389 17.067 25.1061 15.6813C25.7622 14.7406 25.9847 13.6922 25.7668 12.5784C25.6343 11.8971 25.4934 11.2051 25.3571 10.5354C25.2909 10.2106 25.2249 9.8854 25.1592 9.55997C25.4819 9.27653 25.7953 8.9906 26.0918 8.70882L26.1041 8.69721L26.3282 8.48173L26.3667 8.44361C26.4314 8.38062 26.496 8.31763 26.5592 8.25465L26.6955 8.1179L26.7856 8.02756C26.8626 7.95214 26.9334 7.87673 27.005 7.80131C27.3131 7.47891 27.6057 7.15901 27.8683 6.84987C29.2706 5.20476 29.9875 3.78755 29.9998 2.6397C30.0073 2.31373 29.9478 1.99001 29.8258 1.69158ZM13.2987 9.9843C12.494 9.9843 11.9612 10.4277 11.7586 11.2664C11.5969 11.9352 11.4352 12.6165 11.2796 13.2754L11.1149 13.9699C10.7953 15.3142 9.72413 16.1363 8.38422 16.0634C7.15213 15.9971 6.16722 15.0158 5.97932 13.6773C5.92465 13.2903 6.0032 12.9198 6.08636 12.5278C6.10484 12.4391 6.12332 12.3513 6.14027 12.2626C6.21419 11.883 6.28837 11.5034 6.36281 11.1239L6.65467 9.63207C6.90186 8.36819 7.10746 7.30653 7.3046 6.23824C7.59491 4.66356 8.85781 3.5124 10.3078 3.49748C11.4629 3.48588 12.6403 3.48836 13.7785 3.49168H15.2932H15.4472H20.14C21.7686 3.49168 22.9853 4.56908 23.3134 6.30537C23.4928 7.25266 23.6761 8.19083 23.8339 8.99557L23.643 9.15635L23.6322 9.16464C23.5421 9.24006 23.4512 9.31465 23.3565 9.39256L23.0785 9.61798L23.1701 9.75059L23.0708 9.62378C22.9784 9.69755 22.886 9.77131 22.7874 9.84838L22.7843 9.85667L22.5025 10.0763L22.4894 10.0862L22.2076 10.3026L22.1899 10.3166L21.9065 10.5296L21.8857 10.5454C21.7917 10.6158 21.697 10.6854 21.6015 10.7559L21.5769 10.7741C21.4829 10.8437 21.3875 10.9125 21.2912 10.9821L21.265 11.0012L20.977 11.2076L20.9485 11.2283L20.6544 11.4313L20.6251 11.4521L20.3309 11.6559L20.3009 11.6767L19.9998 11.8814L19.9736 11.8996C19.8712 11.9684 19.7688 12.038 19.6656 12.1068L19.6433 12.1217C19.537 12.1922 19.43 12.2634 19.3222 12.3331L19.3091 12.3422L19.1481 12.4474C19.0642 12.1018 18.9702 11.7239 18.8524 11.254C18.6407 10.412 18.1201 9.98513 17.3054 9.9843H13.2987ZM20.3617 13.2041H20.3679L20.6944 12.9845L20.7013 12.9795L21.0217 12.7607C21.1279 12.6878 21.2334 12.614 21.3436 12.5369L21.6608 12.3132L21.9689 12.0944L21.9781 12.0877L22.2776 11.8698L22.2884 11.8615L22.581 11.6452L22.5934 11.6352L22.8806 11.4189L22.8945 11.4081C22.9889 11.3363 23.0834 11.2639 23.1778 11.191L23.1894 11.1819C23.2833 11.1098 23.3765 11.0368 23.4689 10.9647L23.3781 10.8305L23.4797 10.9556C23.5729 10.8827 23.6653 10.8098 23.7554 10.7377L23.7654 10.7294C23.8578 10.6556 23.9487 10.5827 24.0426 10.5056L24.1235 10.4401C24.2739 11.1993 24.4233 11.9587 24.5717 12.7184C24.7965 13.8737 24.4592 14.8185 23.5706 15.5263C23.2325 15.8044 22.8347 15.986 22.414 16.0542C21.9932 16.1225 21.5633 16.0751 21.1641 15.9167C20.3171 15.5852 19.6833 14.7895 19.4662 13.7958C19.7626 13.5969 20.0645 13.3997 20.3579 13.2041H20.3617ZM25.4503 7.54439L25.4349 7.56013C25.2539 7.73418 25.066 7.91071 24.8743 8.08641C24.7411 7.38775 24.6348 6.79269 24.5432 6.23161C24.2475 4.46963 23.1863 3.07646 21.7132 2.48886C22.3939 2.26343 23.05 2.07447 23.6684 1.92115C24.835 1.63439 25.8492 1.48853 26.6839 1.48853C27.7443 1.48853 28.4551 1.73716 28.6776 2.18139C29.0896 3.00104 28.1209 4.78705 26.148 6.84242C26.0463 6.9485 25.9408 7.05624 25.8338 7.16315L25.7791 7.21868C25.6698 7.32725 25.5566 7.43582 25.4464 7.54439H25.4503ZM17.5187 13.4685C17.3025 13.5989 17.0849 13.7282 16.8657 13.8563C13.1085 16.0451 9.3699 17.6621 6.33047 18.4088C3.65374 19.0668 1.73398 18.9674 1.32123 18.1486C0.908478 17.3297 1.87798 15.5437 3.85011 13.4875C4.16583 13.156 4.5062 12.8245 4.86659 12.4855C4.78958 12.8908 4.72721 13.3077 4.77726 13.7445C5.00058 15.6995 6.44213 17.2187 8.20557 17.3563C10.5281 17.5378 11.9596 15.8462 12.3069 14.1986C12.4517 13.5132 12.6219 12.8195 12.7859 12.1499L12.9245 11.5855C12.9853 11.3369 13.0523 11.2797 13.3034 11.2797H17.33C17.5502 11.2797 17.6303 11.3427 17.6835 11.5631C17.8113 12.0864 17.9381 12.6096 18.0639 13.1328C17.8829 13.2439 17.7019 13.3549 17.5187 13.4643V13.4685Z" fill="url(#paint0_linear_16_30)"/>
<path d="M12.9195 5.24379C12.6618 4.92166 12.3428 4.66294 11.9841 4.4852C11.6253 4.30745 11.2353 4.21483 10.8403 4.21362H10.8265C10.1084 4.21576 9.42005 4.52211 8.91031 5.06638C8.40056 5.61064 8.11045 6.34905 8.10276 7.12179C8.09832 7.49575 8.15973 7.86724 8.28373 8.21661C8.4008 8.54793 8.57303 8.85349 8.79197 9.11831C9.04861 9.42744 9.36276 9.67506 9.71405 9.84511C10.0653 10.0152 10.4459 10.1038 10.8311 10.1054H10.8488C11.5694 10.105 12.2606 9.79831 12.7722 9.25212C13.2837 8.70592 13.5741 7.96441 13.5802 7.18893C13.5826 6.83807 13.527 6.48955 13.4162 6.15959C13.304 5.8242 13.1357 5.5138 12.9195 5.24379ZM12.3712 7.17318C12.3708 7.38824 12.3308 7.6011 12.2535 7.79941C12.1762 7.99772 12.0631 8.17755 11.9207 8.32849C11.7769 8.48282 11.6059 8.60469 11.4177 8.68695C11.2295 8.76921 11.028 8.8102 10.8249 8.80752C10.4357 8.80519 10.0621 8.64269 9.78073 8.35335C9.57341 8.1421 9.42533 7.87247 9.35334 7.57513C9.31956 7.4347 9.30325 7.29006 9.30483 7.145C9.30573 6.92869 9.34634 6.71471 9.42433 6.51535C9.50231 6.31598 9.61613 6.13517 9.75925 5.9833C9.90236 5.83143 10.072 5.71149 10.2583 5.63038C10.4446 5.54926 10.644 5.50858 10.8449 5.51066H10.8526C11.2362 5.51206 11.6051 5.66957 11.8853 5.95156C12.0938 6.16166 12.2434 6.43038 12.3173 6.7273C12.3536 6.87269 12.3717 7.02263 12.3712 7.17318Z" fill="url(#paint1_linear_16_30)"/>
<path d="M18.4091 8.59038C18.4091 8.92189 18.4529 9.28489 18.6863 9.5932C18.8064 9.76152 18.9604 9.89833 19.1367 9.99336C19.3131 10.0884 19.5071 10.1392 19.7043 10.1418H19.7428C20.0648 10.1442 20.3758 10.0164 20.6145 9.78382C20.9895 9.42827 21.0611 8.96001 21.0627 8.58789C21.4 8.57629 21.7226 8.52491 22.0014 8.28042C22.16 8.14836 22.2881 7.97871 22.3759 7.78466C22.4636 7.5906 22.5086 7.37738 22.5073 7.16157C22.512 6.83421 22.4083 6.51573 22.2147 6.26318C21.9436 5.90266 21.5632 5.72945 21.0596 5.73691C21.0558 5.39214 21.0072 5.01919 20.7585 4.70011C20.6331 4.53182 20.4734 4.39678 20.2919 4.30539C20.1103 4.214 19.9116 4.16871 19.7112 4.17301C19.3986 4.17297 19.0969 4.29722 18.8642 4.52192C18.5461 4.82111 18.4021 5.21064 18.4121 5.73939C18.1041 5.73276 17.7645 5.78166 17.4719 6.03195C17.3117 6.16238 17.1819 6.331 17.0925 6.52455C17.0031 6.71811 16.9566 6.93134 16.9567 7.14748C16.9518 7.46616 17.0494 7.77686 17.2332 8.02681C17.5597 8.48927 18.014 8.58458 18.4091 8.59038ZM18.8865 6.7505C19.1991 6.7505 19.3447 6.58972 19.3485 6.25323C19.3485 6.15875 19.3485 6.06345 19.3485 5.96814C19.3485 5.85045 19.3485 5.73359 19.3485 5.61674C19.3454 5.50575 19.3831 5.39794 19.4535 5.31676C19.5239 5.23558 19.6212 5.18761 19.7243 5.18329C19.8247 5.18325 19.9212 5.22543 19.9931 5.30082C20.065 5.37622 20.1067 5.47887 20.1093 5.5869C20.1217 5.81315 20.1093 6.04107 20.1147 6.26815C20.1194 6.59966 20.2587 6.74718 20.5675 6.75216C20.7716 6.75216 20.9757 6.75216 21.1797 6.75216C21.2295 6.75004 21.2791 6.75873 21.3256 6.77771C21.3722 6.79669 21.4147 6.82557 21.4506 6.86263C21.4865 6.89968 21.5152 6.94415 21.5348 6.99337C21.5544 7.0426 21.5646 7.09558 21.5648 7.14914C21.5674 7.20248 21.5599 7.25584 21.5427 7.30597C21.5256 7.35609 21.4991 7.40193 21.4649 7.4407C21.4308 7.47946 21.3897 7.51035 21.3441 7.53146C21.2985 7.55258 21.2494 7.56349 21.1998 7.56353C20.9895 7.57679 20.7778 7.56353 20.5668 7.56933C20.2649 7.57347 20.1271 7.71436 20.1194 8.03427C20.1147 8.23898 20.1194 8.44452 20.1194 8.64922C20.1194 8.9451 19.9592 9.13571 19.7243 9.13157C19.4895 9.12743 19.357 8.94841 19.3539 8.65337C19.3539 8.47021 19.3539 8.28705 19.3539 8.10389C19.3539 7.71851 19.2168 7.57016 18.8642 7.5685C18.6801 7.5685 18.4961 7.57347 18.3128 7.5685C18.061 7.56021 17.8954 7.39031 17.897 7.15411C17.8985 6.91791 18.0664 6.7563 18.319 6.7505C18.5053 6.74718 18.6963 6.75299 18.8865 6.7505Z" fill="url(#paint2_linear_16_30)"/>
</g>
<defs>
<linearGradient id="paint0_linear_16_30" x1="7.99908e-09" y1="15.9613" x2="33.7464" y2="16.3332" gradientUnits="userSpaceOnUse">
<stop stop-color="#4AB1F1"/>
<stop offset="0.328125" stop-color="#566CEC"/>
<stop offset="0.65625" stop-color="#D749AF"/>
<stop offset="1" stop-color="#FF7C51"/>
</linearGradient>
<linearGradient id="paint1_linear_16_30" x1="8.10254" y1="8.86501" x2="14.2647" y2="8.90711" gradientUnits="userSpaceOnUse">
<stop stop-color="#518BEE"/>
<stop offset="0.234375" stop-color="#566CEC"/>
</linearGradient>
<linearGradient id="paint2_linear_16_30" x1="16.9565" y1="8.88522" x2="23.201" y2="8.92789" gradientUnits="userSpaceOnUse">
<stop offset="0.770833" stop-color="#D749AF"/>
<stop offset="1" stop-color="#FF7C51"/>
</linearGradient>
<clipPath id="clip0_16_30">
<rect width="30" height="20" fill="white" transform="translate(0 0.166687)"/>
</clipPath>
</defs>
</svg>
