<svg width="24" height="24" viewBox="0 0 24 24" fill="none" xmlns="http://www.w3.org/2000/svg">
<path d="M5.6001 3.60001H8.8001C9.90467 3.60001 10.8001 4.49544 10.8001 5.60001V8.8C10.8001 9.90457 9.90467 10.8 8.8001 10.8H5.6001C4.49553 10.8 3.6001 9.90458 3.6001 8.80001V5.60001C3.6001 4.49544 4.49553 3.60001 5.6001 3.60001Z" fill="#0A0A0D"/>
<path d="M15.2002 3.60001H18.4002C19.5048 3.60001 20.4002 4.49544 20.4002 5.60001V8.8C20.4002 9.90457 19.5048 10.8 18.4002 10.8H15.2002C14.0956 10.8 13.2002 9.90458 13.2002 8.80001V5.60001C13.2002 4.49544 14.0956 3.60001 15.2002 3.60001Z" fill="#0A0A0D"/>
<path d="M18.4002 13.2H15.2002C14.0956 13.2 13.2002 14.0954 13.2002 15.2V18.4C13.2002 19.5046 14.0956 20.4 15.2002 20.4H18.4002C19.5048 20.4 20.4002 19.5046 20.4002 18.4V15.2C20.4002 14.0954 19.5048 13.2 18.4002 13.2Z" fill="#0A0A0D"/>
<path d="M5.6001 13.2H8.8001C9.90467 13.2 10.8001 14.0954 10.8001 15.2V18.4C10.8001 19.5046 9.90467 20.4 8.8001 20.4H5.6001C4.49553 20.4 3.6001 19.5046 3.6001 18.4V15.2C3.6001 14.0954 4.49553 13.2 5.6001 13.2Z" fill="#0A0A0D"/>
</svg>
