<svg width="24" height="24" viewBox="0 0 24 24" fill="none" xmlns="http://www.w3.org/2000/svg">
<path fill-rule="evenodd" clip-rule="evenodd" d="M5.70711 3.70711C5.27511 4.1391 5 4.99285 5 7V17C5 19.0071 5.27511 19.8609 5.70711 20.2929C6.1391 20.7249 6.99285 21 9 21H15C17.0071 21 17.8609 20.7249 18.2929 20.2929C18.7249 19.8609 19 19.0071 19 17V7C19 4.99285 18.7249 4.1391 18.2929 3.70711C17.8609 3.27511 17.0071 3 15 3H9C6.99285 3 6.1391 3.27511 5.70711 3.70711ZM4.29289 2.29289C5.3609 1.22489 7.00715 1 9 1H15C16.9929 1 18.6391 1.22489 19.7071 2.29289C20.7751 3.3609 21 5.00715 21 7V17C21 18.9929 20.7751 20.6391 19.7071 21.7071C18.6391 22.7751 16.9929 23 15 23H9C7.00715 23 5.3609 22.7751 4.29289 21.7071C3.22489 20.6391 3 18.9929 3 17V7C3 5.00715 3.22489 3.3609 4.29289 2.29289ZM9 5.5C9 4.94772 9.44772 4.5 10 4.5H14C14.5523 4.5 15 4.94772 15 5.5C15 6.05228 14.5523 6.5 14 6.5H10C9.44772 6.5 9 6.05228 9 5.5Z" fill="#0A0A0D"/>
<path fill-rule="evenodd" clip-rule="evenodd" d="M10.1971 15.7469C10.6753 15.2687 11.3239 15 12.0002 15C12.6765 15 13.3251 15.2687 13.8033 15.7469C14.2815 16.2251 14.5502 16.8737 14.5502 17.55C14.5502 18.2263 14.2815 18.8749 13.8033 19.3531C13.3251 19.8313 12.6765 20.1 12.0002 20.1C11.3239 20.1 10.6753 19.8313 10.1971 19.3531C9.71886 18.8749 9.4502 18.2263 9.4502 17.55C9.4502 16.8737 9.71886 16.2251 10.1971 15.7469ZM12.0002 18.1C12.1461 18.1 12.286 18.0421 12.3891 17.9389C12.4922 17.8358 12.5502 17.6959 12.5502 17.55C12.5502 17.4041 12.4922 17.2642 12.3891 17.1611C12.286 17.0579 12.1461 17 12.0002 17C11.8543 17 11.7144 17.0579 11.6113 17.1611C11.5081 17.2642 11.4502 17.4041 11.4502 17.55C11.4502 17.6959 11.5081 17.8358 11.6113 17.9389C11.7144 18.0421 11.8543 18.1 12.0002 18.1Z" fill="#0A0A0D"/>
</svg>
