<svg width="20" height="20" viewBox="0 0 20 20" fill="none" xmlns="http://www.w3.org/2000/svg">
<path fill-rule="evenodd" clip-rule="evenodd" d="M8.66883 1.02438C9.07368 0.791145 9.53273 0.668365 10 0.668365C10.4672 0.668365 10.9263 0.791133 11.3311 1.02435L11.3333 1.02563L17.1667 4.35896C17.5717 4.59277 17.908 4.92898 18.142 5.33385C18.3761 5.73871 18.4995 6.198 18.5 6.66563V13.3343C18.4995 13.802 18.3761 14.2613 18.142 14.6661C17.908 15.071 17.5716 15.4072 17.1667 15.641L17.1628 15.6432L11.3333 18.9743L11.3314 18.9755C10.9265 19.2088 10.4674 19.3316 10 19.3316C9.53262 19.3316 9.07347 19.2088 8.66854 18.9754L8.66667 18.9743L2.83719 15.6432L2.83333 15.641C2.42835 15.4072 2.09197 15.071 1.85795 14.6661C1.62392 14.2613 1.50048 13.802 1.5 13.3343V6.66563C1.50048 6.198 1.62392 5.73871 1.85795 5.33385C2.09197 4.92898 2.42835 4.59278 2.83333 4.35896L2.83719 4.35674L8.66883 1.02438ZM10 2.66837C9.88297 2.66837 9.76801 2.69917 9.66667 2.75768L9.66281 2.75991L3.83185 6.09187C3.73127 6.15029 3.64771 6.23401 3.58949 6.33474C3.53105 6.43584 3.50019 6.55051 3.5 6.66728V13.3327C3.50019 13.4495 3.53105 13.5641 3.58949 13.6652C3.64769 13.7659 3.73121 13.8496 3.83175 13.908L3.83333 13.909L9.66667 17.2423C9.76801 17.3008 9.88298 17.3316 10 17.3316C10.117 17.3316 10.232 17.3008 10.3333 17.2423L10.3372 17.2401L16.1667 13.909L16.1682 13.908C16.2688 13.8496 16.3523 13.7659 16.4105 13.6652C16.469 13.564 16.4999 13.4492 16.5 13.3323V6.66768C16.4999 6.55077 16.469 6.43595 16.4105 6.33474C16.3523 6.23401 16.2687 6.15029 16.1681 6.09187L16.1667 6.09102L10.3333 2.75769C10.232 2.69918 10.117 2.66837 10 2.66837Z" fill="black"/>
<path fill-rule="evenodd" clip-rule="evenodd" d="M1.85939 5.29927C2.13593 4.8212 2.74766 4.65784 3.22572 4.93438L10 8.85306L16.7743 4.93438C17.2523 4.65784 17.8641 4.8212 18.1406 5.29927C18.4171 5.77733 18.2538 6.38905 17.7757 6.6656L10.5007 10.8739C10.191 11.0531 9.80904 11.0531 9.49928 10.8739L2.22428 6.6656C1.74621 6.38905 1.58285 5.77733 1.85939 5.29927Z" fill="black"/>
<path fill-rule="evenodd" clip-rule="evenodd" d="M10 8.99999C10.5523 8.99999 11 9.4477 11 9.99999V18.4C11 18.9523 10.5523 19.4 10 19.4C9.44772 19.4 9 18.9523 9 18.4V9.99999C9 9.4477 9.44772 8.99999 10 8.99999Z" fill="black"/>
</svg>
