<svg width="20" height="20" viewBox="0 0 20 20" fill="none" xmlns="http://www.w3.org/2000/svg">
<g clip-path="url(#clip0_248_2430)">
<path d="M18.3327 18.3333L16.666 16.6667M9.58268 17.5C10.6223 17.5 11.6518 17.2952 12.6123 16.8974C13.5728 16.4995 14.4455 15.9164 15.1806 15.1813C15.9157 14.4461 16.4989 13.5734 16.8967 12.6129C17.2946 11.6524 17.4993 10.623 17.4993 9.58332C17.4993 8.54369 17.2946 7.51424 16.8967 6.55375C16.4989 5.59325 15.9157 4.72053 15.1806 3.98539C14.4455 3.25026 13.5728 2.66713 12.6123 2.26928C11.6518 1.87143 10.6223 1.66666 9.58268 1.66666C7.48305 1.66666 5.46942 2.50073 3.98475 3.98539C2.50009 5.47006 1.66602 7.48369 1.66602 9.58332C1.66602 11.683 2.50009 13.6966 3.98475 15.1813C5.46942 16.6659 7.48305 17.5 9.58268 17.5V17.5Z" stroke="#4A576F" stroke-opacity="0.7" stroke-width="2" stroke-linecap="round" stroke-linejoin="round"/>
</g>
<defs>
<clipPath id="clip0_248_2430">
<rect width="20" height="20" fill="white"/>
</clipPath>
</defs>
</svg>
